<svg width="1200" height="1200" viewBox="0 0 1200 1200" fill="none" xmlns="http://www.w3.org/2000/svg">
<g clip-path="url(#clip0_101_15272)">
<rect width="1200" height="1200" fill="#f7f7f7"/>
<path d="M811.232 1020.5C809.312 1020.5 807.608 1020.16 806.12 1019.46C804.656 1018.76 803.516 1017.77 802.7 1016.47C801.884 1015.15 801.476 1013.6 801.476 1011.83H806.984C806.984 1012.62 807.176 1013.29 807.56 1013.84C807.944 1014.37 808.448 1014.77 809.072 1015.03C809.72 1015.3 810.428 1015.43 811.196 1015.43C811.892 1015.43 812.552 1015.32 813.176 1015.1C813.8 1014.86 814.304 1014.52 814.688 1014.06C815.072 1013.6 815.264 1013.08 815.264 1012.48C815.264 1011.88 815.048 1011.38 814.616 1011C814.208 1010.62 813.668 1010.32 812.996 1010.1C812.348 1009.88 811.46 1009.64 810.332 1009.38C810.308 1009.36 810.284 1009.34 810.26 1009.34C810.26 1009.34 810.248 1009.34 810.224 1009.34C808.472 1008.91 807.032 1008.48 805.904 1008.05C804.8 1007.59 803.84 1006.87 803.024 1005.89C802.232 1004.9 801.836 1003.57 801.836 1001.89C801.836 1000.28 802.208 998.916 802.952 997.788C803.696 996.66 804.752 995.808 806.12 995.232C807.488 994.632 809.108 994.332 810.98 994.332C812.876 994.332 814.496 994.656 815.84 995.304C817.208 995.952 818.252 996.888 818.972 998.112C819.692 999.336 820.052 1000.78 820.052 1002.43H814.652C814.652 1001.42 814.292 1000.64 813.572 1000.09C812.852 999.54 811.94 999.264 810.836 999.264C809.852 999.264 809.012 999.468 808.316 999.876C807.62 1000.28 807.272 1000.87 807.272 1001.64C807.272 1002.19 807.476 1002.65 807.884 1003.01C808.292 1003.34 808.808 1003.63 809.432 1003.87C810.08 1004.09 810.944 1004.32 812.024 1004.56C812.048 1004.58 812.06 1004.59 812.06 1004.59C812.084 1004.59 812.108 1004.59 812.132 1004.59C813.908 1005.05 815.372 1005.52 816.524 1006C817.7 1006.48 818.708 1007.23 819.548 1008.26C820.388 1009.27 820.808 1010.65 820.808 1012.4C820.808 1014.18 820.376 1015.67 819.512 1016.87C818.672 1018.07 817.532 1018.98 816.092 1019.6C814.652 1020.2 813.032 1020.5 811.232 1020.5ZM831.902 1020.54C829.982 1020.54 828.242 1020.1 826.682 1019.21C825.122 1018.3 823.898 1017.06 823.01 1015.5C822.146 1013.94 821.714 1012.19 821.714 1010.24C821.714 1008.32 822.146 1006.58 823.01 1005.02C823.898 1003.46 825.122 1002.24 826.682 1001.35C828.242 1000.46 829.982 1000.02 831.902 1000.02C833.726 1000.02 835.382 1000.46 836.87 1001.35C838.358 1002.24 839.522 1003.46 840.362 1005.02C841.202 1006.58 841.622 1008.32 841.622 1010.24C841.622 1012.19 841.202 1013.94 840.362 1015.5C839.522 1017.06 838.358 1018.3 836.87 1019.21C835.382 1020.1 833.726 1020.54 831.902 1020.54ZM832.334 1015.57C833.342 1015.57 834.242 1015.34 835.034 1014.89C835.826 1014.43 836.45 1013.8 836.906 1012.98C837.386 1012.16 837.626 1011.25 837.626 1010.24C837.626 1009.24 837.386 1008.34 836.906 1007.54C836.45 1006.73 835.826 1006.09 835.034 1005.64C834.242 1005.16 833.342 1004.92 832.334 1004.92C831.326 1004.92 830.414 1005.16 829.598 1005.64C828.806 1006.09 828.182 1006.73 827.726 1007.54C827.27 1008.34 827.042 1009.24 827.042 1010.24C827.042 1011.25 827.27 1012.16 827.726 1012.98C828.182 1013.8 828.806 1014.43 829.598 1014.89C830.414 1015.34 831.326 1015.57 832.334 1015.57ZM837.554 1015.79L838.562 1010.21L837.554 1004.77L838.85 1000.52H842.774V1019.96H838.634L837.554 1015.79ZM847.793 1002.25L847.829 1001.93V999.048C847.829 997.8 848.057 996.72 848.513 995.808C848.969 994.896 849.653 994.2 850.565 993.72C851.501 993.216 852.641 992.964 853.985 992.964H857.909V997.104H855.029C854.597 997.104 854.213 997.188 853.877 997.356C853.565 997.5 853.325 997.728 853.157 998.04C852.989 998.352 852.905 998.736 852.905 999.192V1002.04L853.049 1002.54V1020H847.793V1002.25ZM844.409 1000.81H857.945V1005.17H844.409V1000.81ZM867.604 1020.54C865.708 1020.54 863.992 1020.1 862.456 1019.21C860.92 1018.3 859.708 1017.06 858.82 1015.5C857.956 1013.94 857.524 1012.2 857.524 1010.28C857.524 1008.36 857.956 1006.62 858.82 1005.06C859.684 1003.5 860.884 1002.28 862.42 1001.39C863.98 1000.48 865.708 1000.02 867.604 1000.02C869.548 1000.02 871.276 1000.48 872.788 1001.39C874.324 1002.3 875.512 1003.54 876.352 1005.1C877.216 1006.66 877.648 1008.36 877.648 1010.21C877.648 1010.47 877.636 1010.74 877.612 1011C877.588 1011.24 877.564 1011.49 877.54 1011.76H859.756V1008.16H873.832L872.68 1009.27C872.488 1008.24 872.164 1007.38 871.708 1006.68C871.276 1005.96 870.7 1005.42 869.98 1005.06C869.284 1004.68 868.492 1004.48 867.604 1004.48C866.62 1004.48 865.756 1004.72 865.012 1005.2C864.292 1005.68 863.728 1006.36 863.32 1007.22C862.912 1008.08 862.708 1009.1 862.708 1010.28C862.708 1011.46 862.912 1012.46 863.32 1013.3C863.728 1014.14 864.292 1014.78 865.012 1015.21C865.732 1015.64 866.596 1015.86 867.604 1015.86C868.492 1015.86 869.296 1015.67 870.016 1015.28C870.76 1014.88 871.324 1014.32 871.708 1013.63H877.252C876.532 1015.74 875.296 1017.42 873.544 1018.67C871.816 1019.92 869.836 1020.54 867.604 1020.54ZM895.331 1020.54C893.411 1020.54 891.671 1020.1 890.111 1019.21C888.551 1018.3 887.327 1017.06 886.439 1015.5C885.575 1013.94 885.143 1012.19 885.143 1010.24C885.143 1008.32 885.575 1006.58 886.439 1005.02C887.327 1003.46 888.551 1002.24 890.111 1001.35C891.671 1000.46 893.411 1000.02 895.331 1000.02C897.155 1000.02 898.811 1000.46 900.299 1001.35C901.787 1002.24 902.951 1003.46 903.791 1005.02C904.631 1006.58 905.051 1008.32 905.051 1010.24C905.051 1012.19 904.631 1013.94 903.791 1015.5C902.951 1017.06 901.787 1018.3 900.299 1019.21C898.811 1020.1 897.155 1020.54 895.331 1020.54ZM895.763 1015.57C896.771 1015.57 897.671 1015.34 898.463 1014.89C899.255 1014.43 899.879 1013.8 900.335 1012.98C900.815 1012.16 901.055 1011.25 901.055 1010.24C901.055 1009.24 900.815 1008.34 900.335 1007.54C899.879 1006.73 899.255 1006.09 898.463 1005.64C897.671 1005.16 896.771 1004.92 895.763 1004.92C894.755 1004.92 893.843 1005.16 893.027 1005.64C892.235 1006.09 891.611 1006.73 891.155 1007.54C890.699 1008.34 890.471 1009.24 890.471 1010.24C890.471 1011.25 890.699 1012.16 891.155 1012.98C891.611 1013.8 892.235 1014.43 893.027 1014.89C893.843 1015.34 894.755 1015.57 895.763 1015.57ZM900.983 1015.79L901.991 1010.21L900.983 1004.77L902.279 1000.52H906.203V1019.96H902.063L900.983 1015.79ZM916.37 1020.54C914.762 1020.54 913.334 1020.25 912.086 1019.68C910.862 1019.1 909.902 1018.3 909.206 1017.26C908.534 1016.21 908.198 1014.98 908.198 1013.59H913.31C913.334 1014.43 913.634 1015.08 914.21 1015.54C914.81 1015.97 915.59 1016.18 916.55 1016.18C917.342 1016.18 918.002 1016.02 918.53 1015.68C919.058 1015.32 919.322 1014.84 919.322 1014.24C919.322 1013.81 919.166 1013.46 918.854 1013.2C918.542 1012.93 918.122 1012.73 917.594 1012.58C917.09 1012.44 916.43 1012.3 915.614 1012.15H915.578C914.21 1011.94 913.034 1011.66 912.05 1011.32C911.09 1010.96 910.262 1010.38 909.566 1009.56C908.87 1008.74 908.522 1007.63 908.522 1006.21C908.522 1004.99 908.846 1003.91 909.494 1002.97C910.166 1002.04 911.09 1001.32 912.266 1000.81C913.442 1000.28 914.81 1000.02 916.37 1000.02C917.906 1000.02 919.262 1000.3 920.438 1000.85C921.614 1001.38 922.526 1002.13 923.174 1003.12C923.822 1004.1 924.146 1005.23 924.146 1006.5H919.142C919.142 1005.76 918.89 1005.19 918.386 1004.81C917.882 1004.4 917.162 1004.2 916.226 1004.2C915.41 1004.2 914.774 1004.38 914.318 1004.74C913.862 1005.07 913.634 1005.52 913.634 1006.07C913.634 1006.48 913.778 1006.8 914.066 1007.04C914.378 1007.28 914.774 1007.46 915.254 1007.58C915.734 1007.7 916.406 1007.84 917.27 1008.01H917.306C917.33 1008.01 917.342 1008.02 917.342 1008.05C917.366 1008.05 917.39 1008.05 917.414 1008.05C918.878 1008.31 920.078 1008.61 921.014 1008.95C921.974 1009.26 922.79 1009.82 923.462 1010.64C924.158 1011.43 924.506 1012.55 924.506 1013.99C924.506 1015.28 924.17 1016.44 923.498 1017.44C922.826 1018.43 921.866 1019.2 920.618 1019.75C919.394 1020.28 917.978 1020.54 916.37 1020.54ZM802.88 1029.8H817.928V1034.88H806.948L808.352 1033.36V1055H802.88V1029.8ZM807.92 1040.42H816.992V1045.35H807.92V1040.42ZM828.851 1055.54C826.859 1055.54 825.059 1055.1 823.451 1054.21C821.843 1053.32 820.583 1052.1 819.671 1050.54C818.783 1048.95 818.339 1047.2 818.339 1045.28C818.339 1043.34 818.783 1041.58 819.671 1040.02C820.583 1038.46 821.843 1037.24 823.451 1036.35C825.059 1035.46 826.859 1035.02 828.851 1035.02C830.795 1035.02 832.571 1035.46 834.179 1036.35C835.787 1037.24 837.047 1038.46 837.959 1040.02C838.871 1041.58 839.327 1043.34 839.327 1045.28C839.327 1047.2 838.871 1048.95 837.959 1050.54C837.047 1052.1 835.787 1053.32 834.179 1054.21C832.571 1055.1 830.795 1055.54 828.851 1055.54ZM828.851 1050.61C829.835 1050.61 830.723 1050.38 831.515 1049.92C832.307 1049.47 832.919 1048.84 833.351 1048.05C833.783 1047.24 833.999 1046.31 833.999 1045.28C833.999 1044.25 833.783 1043.34 833.351 1042.54C832.919 1041.73 832.307 1041.09 831.515 1040.64C830.723 1040.18 829.835 1039.95 828.851 1039.95C827.843 1039.95 826.943 1040.18 826.151 1040.64C825.383 1041.09 824.771 1041.73 824.315 1042.54C823.883 1043.34 823.667 1044.25 823.667 1045.28C823.667 1046.31 823.883 1047.24 824.315 1048.05C824.771 1048.84 825.383 1049.47 826.151 1049.92C826.943 1050.38 827.843 1050.61 828.851 1050.61ZM841.318 1035.56H844.702L846.574 1040.38V1055H841.318V1035.56ZM842.938 1043.62C843.562 1041.63 844.234 1040.05 844.954 1038.87C845.674 1037.7 846.538 1036.83 847.546 1036.28C848.554 1035.73 849.79 1035.45 851.254 1035.45H852.982V1040.42H850.714C849.706 1040.42 848.902 1040.58 848.302 1040.89C847.726 1041.2 847.294 1041.68 847.006 1042.33C846.718 1042.98 846.574 1043.83 846.574 1044.88L842.938 1043.62ZM862.456 1055C860.32 1055 858.628 1054.39 857.38 1053.16C856.156 1051.92 855.544 1050.21 855.544 1048.05V1038.66L856.516 1039.77H852.016V1038.66L859.72 1030.48H860.692V1036.75L859.72 1035.56H866.056V1039.77H859.756L860.8 1038.66V1047.37C860.8 1048.3 861.052 1049.04 861.556 1049.56C862.084 1050.07 862.828 1050.32 863.788 1050.32H866.164V1055H862.456ZM880.31 1042.33V1041.82L888.842 1029.8H895.214L885.746 1043.12V1040.64L896.15 1055H889.49L880.31 1042.33ZM875.126 1029.8H880.598V1055H875.126V1029.8ZM909.587 1044.06C909.587 1042.59 909.311 1041.5 908.759 1040.78C908.207 1040.06 907.355 1039.7 906.203 1039.7C905.315 1039.7 904.535 1039.9 903.863 1040.31C903.215 1040.72 902.711 1041.31 902.351 1042.08C902.015 1042.84 901.847 1043.74 901.847 1044.78L899.579 1042.4C899.579 1041.06 899.939 1039.83 900.659 1038.73C901.403 1037.6 902.387 1036.71 903.611 1036.06C904.835 1035.42 906.191 1035.09 907.679 1035.09C909.119 1035.09 910.379 1035.43 911.459 1036.1C912.563 1036.77 913.403 1037.72 913.979 1038.94C914.555 1040.17 914.843 1041.6 914.843 1043.23V1055H909.587V1044.06ZM896.591 1035.56H900.191L901.847 1039.41V1055H896.591V1035.56ZM927.141 1055.54C925.149 1055.54 923.349 1055.1 921.741 1054.21C920.133 1053.32 918.873 1052.1 917.961 1050.54C917.073 1048.95 916.629 1047.2 916.629 1045.28C916.629 1043.34 917.073 1041.58 917.961 1040.02C918.873 1038.46 920.133 1037.24 921.741 1036.35C923.349 1035.46 925.149 1035.02 927.141 1035.02C929.085 1035.02 930.861 1035.46 932.469 1036.35C934.077 1037.24 935.337 1038.46 936.249 1040.02C937.161 1041.58 937.617 1043.34 937.617 1045.28C937.617 1047.2 937.161 1048.95 936.249 1050.54C935.337 1052.1 934.077 1053.32 932.469 1054.21C930.861 1055.1 929.085 1055.54 927.141 1055.54ZM927.141 1050.61C928.125 1050.61 929.013 1050.38 929.805 1049.92C930.597 1049.47 931.209 1048.84 931.641 1048.05C932.073 1047.24 932.289 1046.31 932.289 1045.28C932.289 1044.25 932.073 1043.34 931.641 1042.54C931.209 1041.73 930.597 1041.09 929.805 1040.64C929.013 1040.18 928.125 1039.95 927.141 1039.95C926.133 1039.95 925.233 1040.18 924.441 1040.64C923.673 1041.09 923.061 1041.73 922.605 1042.54C922.173 1043.34 921.957 1044.25 921.957 1045.28C921.957 1046.31 922.173 1047.24 922.605 1048.05C923.061 1048.84 923.673 1049.47 924.441 1049.92C925.233 1050.38 926.133 1050.61 927.141 1050.61ZM943.517 1044.06L945.209 1042.47L949.637 1035.56H955.433L948.521 1045.68L946.721 1047.44L942.077 1055H936.281L943.517 1044.06ZM945.353 1047.44L943.481 1045.93L936.713 1035.56H942.653L946.793 1042.4L948.521 1043.77L955.829 1055H949.889L945.353 1047.44Z" fill="#F7F7F7"/>
<g clip-path="url(#clip1_101_15272)">
<path opacity="0.19" d="M396.64 852.98C397.9 856.3 395.3 859.98 392.12 861.56C388.94 863.14 385.26 863.28 381.82 864.17C376.47 865.55 371.76 868.69 366.58 870.62C359.47 873.27 351.73 873.56 344.14 873.82C321.24 874.61 296.8 875 277.34 862.9C276.608 862.54 276.014 861.95 275.65 861.22C275.445 860.496 275.52 859.721 275.86 859.05C277.47 855.34 282.09 854.21 286.09 853.58C304.93 850.64 324.22 847.98 343.3 847.31C353.22 846.98 392.88 843.04 396.64 852.98Z" fill="url(#paint0_linear_101_15272)"/>
<path opacity="0.18" d="M789.8 854.48C781.13 856.24 772.96 859.85 764.87 863.48L732.42 877.85C750.52 887.59 772.49 883.57 793.05 883.29C794.85 883.29 796.79 883.29 798.22 884.41C800.22 885.98 800.4 888.95 801.65 891.19C804 895.43 809.65 896.28 814.48 896.6C858.219 899.45 902.131 898.05 945.6 892.42C947.68 892.15 949.86 891.83 951.54 890.58C956.54 886.85 953.02 878.24 947.36 875.58C941.7 872.92 935.05 873.58 929.04 871.86C923.03 870.14 917.23 863.78 920.04 858.17C895.26 858.656 870.48 858.39 845.7 857.37C826.99 856.57 808.47 850.68 789.8 854.48Z" fill="#1D2741"/>
<path opacity="0.18" d="M909.28 638.33C913.34 595.98 933.95 551.18 912.88 512.89C907.35 502.89 899.42 494.32 890.55 486.35C878.83 475.84 865.48 466.35 853.81 455.76C833.16 437.04 821.35 414.57 805.44 394.01C798.849 385.327 791.35 377.372 783.07 370.28C779.777 367.5 776.443 364.764 773.07 362.07C745.41 340.16 714.28 321.35 678.88 310.43C628.68 294.98 568.99 297.47 526.61 325.67C511.35 335.82 498.99 348.72 487.07 362.07C477.45 372.84 468.16 383.9 457.88 393.98C448.69 403.06 438.73 411.38 427.1 418.05C410.54 427.56 391.48 433.15 373.91 441.14C362.639 446.264 351.917 452.519 341.91 459.81C328.478 469.562 316.467 481.133 306.22 494.19C283.99 522.53 271.43 556.68 272.28 591.06C272.41 596.44 272.85 601.85 273.02 607.25C273.349 613.18 273.003 619.128 271.99 624.98C270.13 634.58 265.56 643.6 260.84 652.54C254.42 664.73 247.69 676.77 247.05 689.98C245.93 712.72 262.77 732.2 281.45 748.85C284.57 751.63 287.75 754.34 290.89 756.97C295.89 761.17 301.04 765.37 306.23 769.52L307.23 770.32C310.01 772.53 312.8 774.73 315.63 776.91C322.73 782.38 330 787.71 337.45 792.79C340.783 795.05 344.117 797.247 347.45 799.38C355.24 804.38 363.23 808.95 371.45 813.12C391.76 823.44 413.45 830.98 436.79 833.98C500.72 841.98 564.31 813.55 628.79 817.31C671.1 819.77 710.56 835.91 751.56 845.31C792.56 854.71 840.17 856.21 873.23 832.98C903.7 811.61 913.69 774.69 913.77 740.55C913.85 706.41 906.04 672.36 909.28 638.33Z" fill="#4F46E5"/>
<path d="M862.88 362.07H333.88C330.254 362.065 326.663 362.774 323.311 364.157C319.959 365.539 316.913 367.569 314.345 370.129C311.777 372.689 309.739 375.73 308.347 379.077C306.955 382.425 306.235 386.015 306.23 389.64V770.33H890.5V389.68C890.5 382.358 887.591 375.335 882.413 370.157C877.235 364.979 870.213 362.07 862.89 362.07H862.88Z" fill="#4F46E5"/>
<path opacity="0.47" d="M412.1 708.83C411.1 719.26 401.74 726.92 392.1 730.2C387.1 731.9 381.79 732.85 377.5 735.95C373.21 739.05 370.4 745.32 373.1 749.95C376.383 749.936 379.594 750.909 382.315 752.744C385.037 754.58 387.143 757.192 388.36 760.24C382.19 769.63 371.26 774.76 360.36 776.24C349.46 777.72 338.36 775.98 327.56 774.18C323.77 773.56 319.73 772.8 317 770.02C314.27 767.24 313.52 763.2 312.84 759.37C312.75 758.83 312.65 758.29 312.55 757.74H305.99V393.98H341.8V566.98C341.8 581.09 341.16 595.32 341.38 609.38C341.6 622.76 350.5 629.54 358.98 639.27C361.59 642.27 364.3 645.45 365.07 649.4C365.9 653.59 364.4 658.03 365.51 662.14C367.43 669.28 376.42 671.98 383.32 669.96C390.22 667.94 395.75 662.74 401.7 658.6C411.983 651.469 424.053 647.351 436.55 646.71C432.36 664.48 411.75 675.71 411.27 694.02C411.12 698.98 412.58 703.88 412.1 708.83Z" fill="url(#paint1_linear_101_15272)"/>
<path d="M280.78 724.51C271.78 709.96 265.48 693.61 263.69 676.6C262.59 666.23 263.06 655.29 258.38 645.97C255.6 640.43 251.07 635.67 249.67 629.62C247.07 618.32 256.14 607.99 264.47 599.92C264.97 599.322 265.639 598.89 266.39 598.68C267.69 598.44 268.86 599.52 269.65 600.59C274.42 607.02 274.8 615.59 276.02 623.46C277.33 632.01 280.13 640.85 286.64 646.56C293.15 652.27 303.18 654.78 306.39 662.84C309.24 670.02 305.15 678.49 307.72 685.78C310.29 693.07 319.08 697.44 320.4 705.12C321.28 710.22 318.54 715.28 318.62 720.45C318.68 724.39 320.37 728.1 321.33 731.93C323.39 740.15 321.33 764.22 308.84 757.18C297.53 750.83 287.42 735.24 280.78 724.51Z" fill="#4F46E5"/>
<path d="M280.78 724.51C271.78 709.96 265.48 693.61 263.69 676.6C262.59 666.23 263.06 655.29 258.38 645.97C255.6 640.43 251.07 635.67 249.67 629.62C247.07 618.32 256.14 607.99 264.47 599.92C264.97 599.322 265.639 598.89 266.39 598.68C267.69 598.44 268.86 599.52 269.65 600.59C274.42 607.02 274.8 615.59 276.02 623.46C277.33 632.01 280.13 640.85 286.64 646.56C293.15 652.27 303.18 654.78 306.39 662.84C309.24 670.02 305.15 678.49 307.72 685.78C310.29 693.07 319.08 697.44 320.4 705.12C321.28 710.22 318.54 715.28 318.62 720.45C318.68 724.39 320.37 728.1 321.33 731.93C323.39 740.15 321.33 764.22 308.84 757.18C297.53 750.83 287.42 735.24 280.78 724.51Z" fill="url(#paint2_linear_101_15272)"/>
<path d="M303.48 707.98C300.21 691.2 300.1 673.66 304.48 657.12C307.13 647.03 311.48 636.97 310.35 626.6C309.71 620.43 307.15 614.37 307.99 608.23C309.56 596.74 321.69 590.23 332.33 585.67C333.014 585.295 333.793 585.129 334.57 585.19C335.88 585.43 336.57 586.85 336.94 588.13C339.13 595.83 336.47 603.95 334.81 611.78C333.02 620.24 332.51 629.5 336.57 637.14C340.63 644.78 349.14 650.68 349.29 659.35C349.42 667.08 342.6 673.56 342.43 681.28C342.26 689 348.93 696.2 347.43 703.86C346.43 708.94 342.09 712.7 340.34 717.56C339 721.27 339.27 725.34 338.82 729.26C337.82 737.68 327.44 759.49 318.2 748.46C309.88 738.5 305.88 720.35 303.48 707.98Z" fill="#4F46E5"/>
<path d="M303.48 707.98C300.21 691.2 300.1 673.66 304.48 657.12C307.13 647.03 311.48 636.97 310.35 626.6C309.71 620.43 307.15 614.37 307.99 608.23C309.56 596.74 321.69 590.23 332.33 585.67C333.014 585.295 333.793 585.129 334.57 585.19C335.88 585.43 336.57 586.85 336.94 588.13C339.13 595.83 336.47 603.95 334.81 611.78C333.02 620.24 332.51 629.5 336.57 637.14C340.63 644.78 349.14 650.68 349.29 659.35C349.42 667.08 342.6 673.56 342.43 681.28C342.26 689 348.93 696.2 347.43 703.86C346.43 708.94 342.09 712.7 340.34 717.56C339 721.27 339.27 725.34 338.82 729.26C337.82 737.68 327.44 759.49 318.2 748.46C309.88 738.5 305.88 720.35 303.48 707.98Z" fill="url(#paint3_linear_101_15272)"/>
<path d="M326.54 710.77C335.14 695.99 346.61 682.77 360.77 673.15C369.41 667.3 379.28 662.57 385.3 654.05C388.88 648.99 390.96 642.75 395.63 638.68C404.38 631.07 417.77 634.2 428.81 637.76C429.572 637.922 430.269 638.309 430.81 638.87C431.64 639.87 431.23 641.44 430.66 642.65C427.24 649.88 419.88 654.23 413.48 659.03C406.55 664.21 400.07 670.84 398.09 679.26C396.11 687.68 398.62 697.73 393.01 704.35C388.01 710.25 378.62 710.62 373.4 716.35C368.18 722.08 368.46 731.86 362.3 736.64C358.21 739.81 352.46 739.78 347.94 742.28C344.49 744.19 342.01 747.42 339.08 750.07C332.8 755.76 310.61 765.31 310.93 750.93C311.2 737.98 320.19 721.67 326.54 710.77Z" fill="#4F46E5"/>
<path d="M326.54 710.77C335.14 695.99 346.61 682.77 360.77 673.15C369.41 667.3 379.28 662.57 385.3 654.05C388.88 648.99 390.96 642.75 395.63 638.68C404.38 631.07 417.77 634.2 428.81 637.76C429.572 637.922 430.269 638.309 430.81 638.87C431.64 639.87 431.23 641.44 430.66 642.65C427.24 649.88 419.88 654.23 413.48 659.03C406.55 664.21 400.07 670.84 398.09 679.26C396.11 687.68 398.62 697.73 393.01 704.35C388.01 710.25 378.62 710.62 373.4 716.35C368.18 722.08 368.46 731.86 362.3 736.64C358.21 739.81 352.46 739.78 347.94 742.28C344.49 744.19 342.01 747.42 339.08 750.07C332.8 755.76 310.61 765.31 310.93 750.93C311.2 737.98 320.19 721.67 326.54 710.77Z" fill="url(#paint4_linear_101_15272)"/>
<path d="M380.22 762.76L378.88 770.33L377.73 776.92L374.99 792.8L373.9 799.39L371.14 815.28L369.99 821.86L363.13 861.34H291.8L284.88 821.86L283.73 815.28L280.99 799.39L279.83 792.8L276.99 776.92L275.86 770.33L274.54 762.77C274.242 761.075 274.282 759.337 274.656 757.657C275.03 755.977 275.732 754.387 276.721 752.978C277.71 751.569 278.967 750.369 280.42 749.446C281.874 748.524 283.494 747.896 285.19 747.6C285.94 747.469 286.699 747.402 287.46 747.4H367.3C369.213 747.397 371.102 747.814 372.836 748.62C374.57 749.427 376.107 750.604 377.337 752.068C378.566 753.533 379.46 755.249 379.955 757.097C380.45 758.944 380.533 760.877 380.2 762.76H380.22Z" fill="#4F46E5"/>
<path d="M380.22 762.76L378.88 770.33L377.73 776.92L374.99 792.8L373.9 799.39L371.14 815.28L369.99 821.86L363.13 861.34H291.8L284.88 821.86L283.73 815.28L280.99 799.39L279.83 792.8L276.99 776.92L275.86 770.33L274.54 762.77C274.242 761.075 274.282 759.337 274.656 757.657C275.03 755.977 275.732 754.387 276.721 752.978C277.71 751.569 278.967 750.369 280.42 749.446C281.874 748.524 283.494 747.896 285.19 747.6C285.94 747.469 286.699 747.402 287.46 747.4H367.3C369.213 747.397 371.102 747.814 372.836 748.62C374.57 749.427 376.107 750.604 377.337 752.068C378.566 753.533 379.46 755.249 379.955 757.097C380.45 758.944 380.533 760.877 380.2 762.76H380.22Z" fill="url(#paint5_linear_101_15272)"/>
<path d="M890.5 389.68V393.98H306.23V389.68C306.23 382.358 309.139 375.335 314.317 370.157C319.495 364.979 326.517 362.07 333.84 362.07H862.84C866.466 362.069 870.056 362.782 873.407 364.168C876.757 365.554 879.801 367.587 882.366 370.15C884.931 372.713 886.966 375.756 888.354 379.105C889.743 382.454 890.459 386.045 890.46 389.67L890.5 389.68Z" fill="url(#paint6_linear_101_15272)"/>
<path d="M335.76 383.01C339.168 383.01 341.93 380.248 341.93 376.84C341.93 373.432 339.168 370.67 335.76 370.67C332.352 370.67 329.59 373.432 329.59 376.84C329.59 380.248 332.352 383.01 335.76 383.01Z" fill="url(#paint7_linear_101_15272)"/>
<path d="M356.47 383.01C359.878 383.01 362.64 380.248 362.64 376.84C362.64 373.432 359.878 370.67 356.47 370.67C353.062 370.67 350.3 373.432 350.3 376.84C350.3 380.248 353.062 383.01 356.47 383.01Z" fill="url(#paint8_linear_101_15272)"/>
<path d="M377.17 383.01C380.578 383.01 383.34 380.248 383.34 376.84C383.34 373.432 380.578 370.67 377.17 370.67C373.762 370.67 371 373.432 371 376.84C371 380.248 373.762 383.01 377.17 383.01Z" fill="url(#paint9_linear_101_15272)"/>
<path d="M664.19 528.03V642.25C664.185 646.122 662.643 649.834 659.904 652.571C657.165 655.308 653.452 656.847 649.58 656.85H535.37C531.498 656.847 527.785 655.308 525.046 652.571C522.307 649.834 520.765 646.122 520.76 642.25V528.03C520.76 524.158 522.298 520.444 525.036 517.706C527.774 514.968 531.488 513.43 535.36 513.43H649.58C653.445 513.427 657.154 514.957 659.893 517.685C662.631 520.412 664.177 524.114 664.19 527.98V528.03Z" fill="url(#paint10_linear_101_15272)"/>
<path d="M604.15 571.52C604.209 573.629 603.696 575.715 602.666 577.556C601.636 579.397 600.128 580.926 598.3 581.98C597.836 582.248 597.453 582.635 597.189 583.101C596.925 583.567 596.791 584.095 596.8 584.63V609.63C596.8 610.553 596.433 611.438 595.781 612.091C595.128 612.743 594.243 613.11 593.32 613.11H591.62C590.697 613.11 589.812 612.743 589.159 612.091C588.507 611.438 588.14 610.553 588.14 609.63V584.63C588.145 584.094 588.009 583.566 587.746 583.1C587.482 582.633 587.101 582.243 586.64 581.97C584.876 580.953 583.408 579.492 582.383 577.732C581.358 575.973 580.81 573.976 580.795 571.939C580.78 569.903 581.297 567.898 582.296 566.123C583.295 564.349 584.74 562.866 586.489 561.822C588.238 560.779 590.229 560.21 592.265 560.174C594.301 560.137 596.312 560.634 598.097 561.614C599.882 562.594 601.379 564.024 602.441 565.762C603.503 567.499 604.092 569.484 604.15 571.52ZM378.91 770.33L377.76 776.92H277.02L275.87 770.33H378.91ZM374.99 792.8L373.85 799.39H280.96L279.8 792.8H374.99ZM371.09 815.28L369.94 821.86H284.88L283.73 815.28H371.09Z" fill="#4F46E5"/>
<path opacity="0.18" d="M741.21 606.89C736.52 600.32 729.43 595.75 721.88 592.89C720.16 592.24 718.22 591.68 716.54 592.41C715.36 593.061 714.371 594.009 713.67 595.16C710.03 600.16 706.24 605.56 705.89 611.74C705.37 621.14 712.82 631.15 708.04 639.26C706.71 641.52 704.59 643.2 703.04 645.32C700.12 649.32 699.45 654.56 699.84 659.5C700.31 665.43 701.07 673.36 695.47 675.38C693.788 675.873 692.004 675.897 690.31 675.45C685.4 674.45 680.86 672.1 676.05 670.7C671.24 669.3 665.69 668.97 661.51 671.7C661.14 677.04 665.73 681.49 670.56 683.8C675.39 686.11 680.83 687.16 685.26 690.17C691.96 694.71 695.26 703.17 695.05 711.3C694.84 719.43 691.66 727.13 687.6 734.14C685.71 737.4 683.6 740.65 682.82 744.34C681.29 751.7 685.41 758.93 689.36 765.34C690.52 767.21 691.79 769.19 693.81 770.07C695.52 770.651 697.348 770.799 699.13 770.5L769.27 764.5C771.27 764.33 773.6 763.93 774.46 762.12C774.84 761.008 774.84 759.802 774.46 758.69C772.17 748.87 764.96 740.79 762.4 731.03C761.22 726.48 761.09 721.73 760.96 717.03C760.44 697.65 759.79 678.08 755.66 659.03C753.59 649.54 748.49 640.67 746.47 631.42C744.59 622.79 747.17 615.23 741.21 606.89Z" fill="#1D2741"/>
<path d="M631.14 513.43H618.73V496.76C618.713 489.798 615.931 483.128 610.996 478.218C606.061 473.307 599.377 470.558 592.415 470.575C585.453 470.592 578.783 473.375 573.873 478.31C568.962 483.245 566.213 489.928 566.23 496.89V513.43H553.81V496.43C554.068 486.329 558.27 476.729 565.516 469.686C572.762 462.644 582.478 458.717 592.582 458.747C602.687 458.777 612.379 462.762 619.583 469.847C626.788 476.933 630.932 486.557 631.13 496.66L631.14 513.43Z" fill="url(#paint11_linear_101_15272)"/>
<path d="M890.41 846.98L900.88 856.98L885.81 872.04L866.88 873.67C866.323 872.067 866.366 870.317 867.003 868.745C867.639 867.172 868.825 865.884 870.34 865.12C873.821 863.239 877.611 861.999 881.53 861.46L881.12 853.72L890.41 846.98ZM774.04 846.21L775.58 858.83L740.12 874.71C740.12 874.71 735.69 867.86 740.23 861.91C744.77 855.96 757.29 851.78 757.29 851.78L759.5 846.29L774.04 846.21Z" fill="#3F3D56"/>
<path d="M783.07 651.56C783.07 651.56 770.23 661.05 768.88 675.78C767.53 690.51 766.88 695.68 766.88 695.68L744.38 693.86L744.08 706.3C744.08 706.3 773.93 717.21 778.51 715.35C783.09 713.49 788.82 705.28 788.82 705.28L783.07 651.56Z" fill="#4F46E5"/>
<path d="M783.07 651.56C783.07 651.56 770.23 661.05 768.88 675.78C767.53 690.51 766.88 695.68 766.88 695.68L744.38 693.86L744.08 706.3C744.08 706.3 773.93 717.21 778.51 715.35C783.09 713.49 788.82 705.28 788.82 705.28L783.07 651.56Z" fill="url(#paint12_linear_101_15272)"/>
<path d="M791.71 730.07C791.71 730.07 744.71 768.85 744.33 782.07C743.95 795.29 755.88 846.98 755.88 846.98L774.1 846.88L774.63 792.54C774.63 792.54 813.07 779.12 817.25 771.01C821.43 762.9 830.29 723.34 791.71 730.07Z" fill="#4F46E5"/>
<path d="M791.71 730.07C791.71 730.07 744.71 768.85 744.33 782.07C743.95 795.29 755.88 846.98 755.88 846.98L774.1 846.88L774.63 792.54C774.63 792.54 813.07 779.12 817.25 771.01C821.43 762.9 830.29 723.34 791.71 730.07Z" fill="url(#paint13_linear_101_15272)"/>
<path d="M791.71 730.07C791.71 730.07 794.58 789.21 813.07 808.33C831.56 827.45 878.88 856.14 878.88 856.14L892.31 847.81L846.88 800.39C846.88 800.39 853.45 747.16 845.68 737.83C837.91 728.5 791.71 730.07 791.71 730.07Z" fill="#4F46E5"/>
<path d="M791.71 730.07C791.71 730.07 794.58 789.21 813.07 808.33C831.56 827.45 878.88 856.14 878.88 856.14L892.31 847.81L846.88 800.39C846.88 800.39 853.45 747.16 845.68 737.83C837.91 728.5 791.71 730.07 791.71 730.07Z" fill="url(#paint14_linear_101_15272)"/>
<path d="M791.71 730.07L775.65 662.12C775.65 662.12 784.65 636.21 820.32 644.55C855.99 652.89 845.65 737.83 845.65 737.83C845.65 737.83 805.61 751.11 791.71 730.07Z" fill="#4F46E5"/>
<path d="M791.71 730.07L775.65 662.12C775.65 662.12 784.65 636.21 820.32 644.55C855.99 652.89 845.65 737.83 845.65 737.83C845.65 737.83 805.61 751.11 791.71 730.07Z" fill="url(#paint15_linear_101_15272)"/>
<path d="M819.11 654.98C819.11 654.98 816.97 643.67 828.45 646.69C839.93 649.71 857.8 688.69 857.14 694.11C856.48 699.53 800.63 701.76 800.63 701.76L799.3 688.76L828.66 683.85C828.66 683.85 817.88 665.39 819.11 654.98Z" fill="#4F46E5"/>
<path d="M819.11 654.98C819.11 654.98 816.97 643.67 828.45 646.69C839.93 649.71 857.8 688.69 857.14 694.11C856.48 699.53 800.63 701.76 800.63 701.76L799.3 688.76L828.66 683.85C828.66 683.85 817.88 665.39 819.11 654.98Z" fill="url(#paint16_linear_101_15272)"/>
<path d="M813.63 630.86C812.253 633.706 809.911 635.971 807.02 637.25C806.535 637.417 806.063 637.621 805.61 637.86C805.407 637.989 805.222 638.143 805.06 638.32C804.06 639.44 804.76 641.1 805.06 642.54C805.62 645.82 803.72 649.18 800.98 651.06C799.441 652.048 797.753 652.781 795.98 653.23C793.49 653.88 790.81 654.03 788.92 653.14C785.92 651.73 786.22 647.14 785.56 644.33C783.38 635.21 781.47 625.86 782.46 616.43C782.99 611.43 784.39 606.33 787.4 602.27C790.41 598.21 795.2 595.27 800.26 595.36C805.32 595.45 810.12 598.64 813.73 602.36C814.992 603.602 816.058 605.028 816.89 606.59C819.23 611.28 817.99 616.89 816.69 621.97C816.028 625.045 815.001 628.03 813.63 630.86Z" fill="url(#paint17_linear_101_15272)"/>
<path d="M817.65 608.74C817.65 608.74 802.65 608.74 793.58 614.02C785.49 618.71 783.26 628.73 782.58 628.56C781.05 628.21 776.06 618.56 778.16 616.43C780.26 614.3 778.6 614.29 778.6 614.29C778.6 614.29 776.19 610.29 777.4 603.11C778.391 597.865 779.748 592.696 781.46 587.64C781.46 587.64 782.09 585.26 791.17 587.64C800.25 590.02 815.56 597.29 816.41 600.24C817.26 603.19 816.56 604.54 816.56 604.54C816.56 604.54 819.05 606.37 817.65 608.74Z" fill="#4F46E5"/>
<path d="M817.65 608.74C817.65 608.74 802.65 608.74 793.58 614.02C785.49 618.71 783.26 628.73 782.58 628.56C781.05 628.21 776.06 618.56 778.16 616.43C780.26 614.3 778.6 614.29 778.6 614.29C778.6 614.29 776.19 610.29 777.4 603.11C778.391 597.865 779.748 592.696 781.46 587.64C781.46 587.64 782.09 585.26 791.17 587.64C800.25 590.02 815.56 597.29 816.41 600.24C817.26 603.19 816.56 604.54 816.56 604.54C816.56 604.54 819.05 606.37 817.65 608.74Z" fill="url(#paint18_linear_101_15272)"/>
<path d="M793.58 613.98C798.843 615.253 804.19 616.148 809.58 616.66C814.42 616.97 817.91 615.66 817.94 615.43C818 614.92 816.37 623.55 816.37 623.55L812.7 624.84C811.284 625.341 809.774 625.519 808.28 625.36L785.39 622.98C785.39 622.98 789.29 615.98 793.58 613.98Z" fill="#4F46E5"/>
<path d="M793.58 613.98C798.843 615.253 804.19 616.148 809.58 616.66C814.42 616.97 817.91 615.66 817.94 615.43C818 614.92 816.37 623.55 816.37 623.55L812.7 624.84C811.284 625.341 809.774 625.519 808.28 625.36L785.39 622.98C785.39 622.98 789.29 615.98 793.58 613.98Z" fill="url(#paint19_linear_101_15272)"/>
<path d="M802.99 618.42C803.648 618.24 804.344 618.261 804.99 618.48C805.43 618.56 805.829 618.79 806.12 619.13C806.286 619.389 806.402 619.678 806.46 619.98C806.52 620.152 806.52 620.339 806.46 620.51C806.375 620.609 806.265 620.683 806.142 620.723C806.019 620.764 805.886 620.77 805.76 620.74C804.567 620.748 803.385 620.521 802.28 620.07C801.38 619.6 802.23 618.69 802.99 618.42ZM813.55 618.91C813.738 618.742 813.958 618.613 814.197 618.532C814.436 618.452 814.688 618.42 814.94 618.44C815.103 618.431 815.266 618.455 815.42 618.512C815.573 618.569 815.712 618.657 815.83 618.77C815.998 618.991 816.13 619.238 816.22 619.5C816.299 619.662 816.334 619.841 816.32 620.02C816.297 620.123 816.243 620.215 816.167 620.287C816.09 620.358 815.994 620.405 815.89 620.42C815.093 620.736 814.223 620.823 813.38 620.67C812.66 620.46 813.07 619.36 813.55 618.91Z" fill="white"/>
<path d="M800.93 651.06C799.391 652.048 797.703 652.781 795.93 653.23C794.442 651.546 793.489 649.458 793.19 647.23C792.898 645.686 792.721 644.121 792.66 642.55C792.476 641.185 792.812 639.8 793.6 638.67C794.121 638.186 794.747 637.83 795.429 637.629C796.111 637.427 796.83 637.387 797.53 637.51C798.94 637.67 800.3 638.16 801.71 638.31C802.91 638.44 804.35 637.89 805.61 637.82C805.407 637.948 805.222 638.103 805.06 638.28C804.06 639.4 804.76 641.06 805.06 642.5C805.57 645.82 803.67 649.18 800.93 651.06Z" fill="url(#paint20_linear_101_15272)"/>
<path d="M736.61 687.6C736.03 687.141 735.341 686.841 734.61 686.73C734.246 686.686 733.878 686.776 733.575 686.984C733.273 687.192 733.058 687.504 732.97 687.86C732.969 688.369 733.142 688.863 733.46 689.26L734.81 691.37C734.98 691.589 735.081 691.854 735.1 692.13C735.1 692.83 734.1 692.97 733.39 692.88C728.99 692.32 724.6 690.96 720.21 691.54C719.872 691.55 719.549 691.681 719.3 691.91C719.173 692.1 719.114 692.327 719.134 692.555C719.154 692.782 719.252 692.996 719.41 693.16C719.741 693.479 720.146 693.71 720.59 693.83C723.048 694.731 725.572 695.44 728.14 695.95C727.85 696.67 726.9 696.8 726.14 696.83C724.015 696.91 721.899 697.15 719.81 697.55C718.62 697.77 717.16 698.37 717.15 699.55C717.184 699.944 717.34 700.318 717.596 700.619C717.852 700.92 718.196 701.134 718.58 701.23C719.354 701.412 720.156 701.439 720.94 701.31C723.693 701.08 726.462 701.15 729.2 701.52C726.24 701.86 723.429 703.001 721.07 704.82C720.854 704.971 720.676 705.169 720.55 705.4C720.28 705.98 720.79 706.68 721.4 706.88C722.032 707.01 722.687 706.972 723.3 706.77C726.034 706.136 728.824 705.774 731.63 705.69C729.939 706.47 728.364 707.479 726.95 708.69C726.521 709.021 726.178 709.45 725.95 709.94C725.834 710.189 725.796 710.466 725.843 710.736C725.889 711.006 726.017 711.255 726.21 711.45C726.465 711.608 726.754 711.703 727.053 711.727C727.352 711.751 727.653 711.704 727.93 711.59C731.26 710.69 734.2 708.53 737.61 708.03C739.39 707.76 741.45 707.87 742.69 706.56C743.22 705.912 743.59 705.148 743.77 704.33C744.51 701.76 746.04 696.33 744.49 693.83C743.88 692.83 742.4 692.01 741.49 691.27C739.929 689.962 738.3 688.737 736.61 687.6ZM792.34 683.5C791.761 683.041 791.071 682.741 790.34 682.63C789.976 682.586 789.608 682.676 789.305 682.884C789.003 683.092 788.788 683.404 788.7 683.76C788.699 684.269 788.872 684.763 789.19 685.16L790.54 687.27C790.71 687.489 790.811 687.754 790.83 688.03C790.78 688.73 789.83 688.87 789.12 688.78C784.72 688.22 780.33 686.85 775.94 687.44C775.603 687.446 775.28 687.574 775.03 687.8C774.9 687.991 774.84 688.22 774.86 688.45C774.88 688.68 774.979 688.895 775.14 689.06C775.471 689.379 775.876 689.61 776.32 689.73C778.778 690.631 781.302 691.34 783.87 691.85C783.58 692.57 782.63 692.69 781.87 692.72C779.745 692.808 777.629 693.052 775.54 693.45C774.35 693.67 772.89 694.26 772.88 695.45C772.914 695.844 773.07 696.218 773.326 696.519C773.582 696.82 773.926 697.034 774.31 697.13C775.084 697.312 775.886 697.339 776.67 697.21C779.423 696.98 782.192 697.05 784.93 697.42C781.973 697.76 779.165 698.901 776.81 700.72C776.592 700.867 776.41 701.062 776.28 701.29C776.237 701.443 776.225 701.602 776.245 701.759C776.264 701.916 776.314 702.068 776.392 702.205C776.47 702.343 776.575 702.463 776.7 702.56C776.825 702.657 776.967 702.729 777.12 702.77C777.751 702.908 778.407 702.873 779.02 702.67C781.753 702.031 784.544 701.669 787.35 701.59C785.659 702.37 784.084 703.379 782.67 704.59C782.241 704.921 781.898 705.35 781.67 705.84C781.556 706.089 781.521 706.366 781.567 706.636C781.613 706.905 781.74 707.154 781.93 707.35C782.187 707.508 782.478 707.603 782.778 707.627C783.079 707.651 783.381 707.605 783.66 707.49C786.98 706.59 789.92 704.43 793.33 703.93C795.11 703.66 797.17 703.77 798.41 702.46C798.94 701.812 799.31 701.048 799.49 700.23C800.24 697.66 801.76 692.23 800.21 689.72C799.6 688.72 798.12 687.91 797.21 687.17C795.652 685.863 794.026 684.638 792.34 683.5Z" fill="#4F46E5"/>
<path d="M736.61 687.6C736.03 687.141 735.341 686.841 734.61 686.73C734.246 686.685 733.878 686.775 733.575 686.984C733.273 687.192 733.058 687.504 732.97 687.86C732.969 688.369 733.142 688.863 733.46 689.26L734.81 691.37C734.98 691.589 735.081 691.854 735.1 692.13C735.1 692.83 734.1 692.97 733.39 692.88C728.99 692.32 724.6 690.96 720.21 691.54C719.872 691.549 719.549 691.681 719.3 691.91C719.173 692.1 719.114 692.327 719.134 692.554C719.154 692.782 719.252 692.996 719.41 693.16C719.741 693.479 720.146 693.71 720.59 693.83C723.048 694.731 725.572 695.439 728.14 695.95C727.85 696.67 726.9 696.8 726.14 696.83C724.015 696.909 721.899 697.15 719.81 697.55C718.62 697.77 717.16 698.37 717.15 699.55C717.184 699.944 717.34 700.318 717.596 700.619C717.852 700.92 718.196 701.134 718.58 701.23C719.354 701.411 720.156 701.439 720.94 701.31C723.693 701.08 726.462 701.15 729.2 701.52C726.24 701.86 723.429 703.001 721.07 704.82C720.854 704.971 720.676 705.169 720.55 705.4C720.28 705.98 720.79 706.68 721.4 706.88C722.032 707.009 722.687 706.971 723.3 706.77C726.034 706.135 728.824 705.774 731.63 705.69C729.939 706.469 728.364 707.479 726.95 708.69C726.521 709.021 726.178 709.449 725.95 709.94C725.834 710.188 725.796 710.466 725.843 710.736C725.889 711.006 726.017 711.255 726.21 711.45C726.465 711.607 726.754 711.702 727.053 711.727C727.352 711.751 727.653 711.704 727.93 711.59C731.26 710.69 734.2 708.53 737.61 708.03C739.39 707.76 741.45 707.87 742.69 706.56C743.22 705.912 743.59 705.148 743.77 704.33C744.51 701.76 746.04 696.33 744.49 693.83C743.88 692.83 742.4 692.01 741.49 691.27C739.929 689.962 738.3 688.737 736.61 687.6Z" fill="url(#paint21_linear_101_15272)"/>
<path d="M792.34 683.5C791.76 683.041 791.071 682.741 790.34 682.63C789.976 682.586 789.608 682.676 789.305 682.884C789.003 683.092 788.788 683.404 788.7 683.76C788.699 684.269 788.872 684.763 789.19 685.16L790.54 687.27C790.71 687.489 790.811 687.754 790.83 688.03C790.78 688.73 789.83 688.87 789.12 688.78C784.72 688.22 780.33 686.85 775.94 687.44C775.603 687.446 775.28 687.574 775.03 687.8C774.9 687.991 774.84 688.22 774.86 688.45C774.88 688.68 774.979 688.895 775.14 689.06C775.471 689.379 775.876 689.61 776.32 689.73C778.778 690.631 781.302 691.34 783.87 691.85C783.58 692.57 782.63 692.69 781.87 692.72C779.745 692.808 777.629 693.052 775.54 693.45C774.35 693.67 772.89 694.26 772.88 695.45C772.914 695.844 773.07 696.218 773.326 696.519C773.582 696.82 773.926 697.034 774.31 697.13C775.084 697.312 775.886 697.339 776.67 697.21C779.423 696.98 782.192 697.05 784.93 697.42C781.973 697.76 779.165 698.901 776.81 700.72C776.592 700.867 776.41 701.062 776.28 701.29C776.237 701.443 776.225 701.602 776.245 701.759C776.264 701.916 776.314 702.068 776.392 702.205C776.47 702.343 776.575 702.463 776.7 702.56C776.824 702.657 776.967 702.729 777.12 702.77C777.751 702.908 778.407 702.873 779.02 702.67C781.753 702.031 784.544 701.669 787.35 701.59C785.659 702.37 784.084 703.379 782.67 704.59C782.241 704.921 781.898 705.35 781.67 705.84C781.556 706.089 781.521 706.366 781.567 706.636C781.613 706.905 781.74 707.154 781.93 707.35C782.187 707.508 782.478 707.603 782.778 707.627C783.079 707.651 783.381 707.605 783.66 707.49C786.98 706.59 789.92 704.43 793.33 703.93C795.11 703.66 797.17 703.77 798.41 702.46C798.94 701.812 799.31 701.048 799.49 700.23C800.24 697.66 801.76 692.23 800.21 689.72C799.6 688.72 798.12 687.91 797.21 687.17C795.652 685.863 794.026 684.638 792.34 683.5Z" fill="url(#paint22_linear_101_15272)"/>
</g>
</g>
<defs>
<linearGradient id="paint0_linear_101_15272" x1="275.54" y1="860.21" x2="396.96" y2="860.21" gradientUnits="userSpaceOnUse">
<stop stop-color="#183866"/>
<stop offset="1" stop-color="#1A7FC1"/>
</linearGradient>
<linearGradient id="paint1_linear_101_15272" x1="519.79" y1="576.6" x2="-238.67" y2="611.65" gradientUnits="userSpaceOnUse">
<stop stop-opacity="0"/>
<stop offset="0.97" stop-color="#0C0C11"/>
<stop offset="0.98" stop-color="#312F43"/>
<stop offset="0.99" stop-color="#3F3D56"/>
</linearGradient>
<linearGradient id="paint2_linear_101_15272" x1="235.14" y1="687.1" x2="578.71" y2="633.59" gradientUnits="userSpaceOnUse">
<stop stop-opacity="0"/>
<stop offset="0.97" stop-color="#0C0C11"/>
<stop offset="0.98" stop-color="#312F43"/>
<stop offset="0.99" stop-color="#3F3D56"/>
</linearGradient>
<linearGradient id="paint3_linear_101_15272" x1="268.45" y1="671.99" x2="511.16" y2="657.38" gradientUnits="userSpaceOnUse">
<stop stop-opacity="0"/>
<stop offset="0.29" stop-opacity="0.29"/>
<stop offset="0.97" stop-color="#0C0C11"/>
<stop offset="0.98" stop-color="#312F43"/>
<stop offset="0.99" stop-color="#3F3D56"/>
</linearGradient>
<linearGradient id="paint4_linear_101_15272" x1="459.7" y1="819.5" x2="330.25" y2="640.26" gradientUnits="userSpaceOnUse">
<stop stop-opacity="0"/>
<stop offset="0.84" stop-opacity="0.66"/>
<stop offset="0.97"/>
</linearGradient>
<linearGradient id="paint5_linear_101_15272" x1="408.17" y1="797.8" x2="251.71" y2="810.16" gradientUnits="userSpaceOnUse">
<stop stop-opacity="0"/>
<stop offset="0.87" stop-opacity="0.66"/>
<stop offset="1"/>
</linearGradient>
<linearGradient id="paint6_linear_101_15272" x1="597.01" y1="277.88" x2="605.31" y2="975.28" gradientUnits="userSpaceOnUse">
<stop stop-opacity="0"/>
<stop offset="0.5" stop-opacity="0.38"/>
<stop offset="0.97" stop-color="#0C0C11"/>
<stop offset="0.98" stop-color="#312F43"/>
<stop offset="0.99" stop-color="#3F3D56"/>
</linearGradient>
<linearGradient id="paint7_linear_101_15272" x1="338.36" y1="360.28" x2="333.95" y2="388.26" gradientUnits="userSpaceOnUse">
<stop stop-color="#183866"/>
<stop offset="1" stop-color="#1A7FC1"/>
</linearGradient>
<linearGradient id="paint8_linear_101_15272" x1="359.07" y1="360.29" x2="354.66" y2="388.27" gradientUnits="userSpaceOnUse">
<stop stop-color="#183866"/>
<stop offset="1" stop-color="#1A7FC1"/>
</linearGradient>
<linearGradient id="paint9_linear_101_15272" x1="379.78" y1="360.3" x2="375.37" y2="388.28" gradientUnits="userSpaceOnUse">
<stop stop-color="#183866"/>
<stop offset="1" stop-color="#1A7FC1"/>
</linearGradient>
<linearGradient id="paint10_linear_101_15272" x1="626.21" y1="370.94" x2="569.14" y2="733.29" gradientUnits="userSpaceOnUse">
<stop offset="0.01" stop-color="white"/>
<stop offset="0.99" stop-color="white" stop-opacity="0"/>
</linearGradient>
<linearGradient id="paint11_linear_101_15272" x1="593.3" y1="452.49" x2="591.97" y2="537.53" gradientUnits="userSpaceOnUse">
<stop offset="0.01" stop-color="white"/>
<stop offset="0.99" stop-color="white" stop-opacity="0"/>
</linearGradient>
<linearGradient id="paint12_linear_101_15272" x1="755.02" y1="670.63" x2="876.46" y2="788.42" gradientUnits="userSpaceOnUse">
<stop offset="0.01"/>
<stop offset="0.15" stop-opacity="0.52"/>
<stop offset="0.99" stop-opacity="0"/>
</linearGradient>
<linearGradient id="paint13_linear_101_15272" x1="791.08" y1="795.45" x2="650.72" y2="676.44" gradientUnits="userSpaceOnUse">
<stop offset="0.01"/>
<stop offset="0.16" stop-opacity="0.52"/>
<stop offset="1" stop-opacity="0"/>
</linearGradient>
<linearGradient id="paint14_linear_101_15272" x1="796.86" y1="802.88" x2="1008.01" y2="749.18" gradientUnits="userSpaceOnUse">
<stop offset="0.01"/>
<stop offset="0.15" stop-opacity="0.52"/>
<stop offset="0.99" stop-opacity="0"/>
</linearGradient>
<linearGradient id="paint15_linear_101_15272" x1="780.7" y1="716.23" x2="943.65" y2="610.65" gradientUnits="userSpaceOnUse">
<stop offset="0.01"/>
<stop offset="0.15" stop-opacity="0.52"/>
<stop offset="0.99" stop-opacity="0"/>
</linearGradient>
<linearGradient id="paint16_linear_101_15272" x1="800.78" y1="670.19" x2="946.63" y2="712.91" gradientUnits="userSpaceOnUse">
<stop offset="0.01"/>
<stop offset="0.15" stop-opacity="0.52"/>
<stop offset="0.99" stop-opacity="0"/>
</linearGradient>
<linearGradient id="paint17_linear_101_15272" x1="781.831" y1="623.902" x2="815.791" y2="632.655" gradientUnits="userSpaceOnUse">
<stop stop-color="#ECC4D7"/>
<stop offset="0.42" stop-color="#EFD4D1"/>
<stop offset="1" stop-color="#F2EAC9"/>
</linearGradient>
<linearGradient id="paint18_linear_101_15272" x1="779.13" y1="608.99" x2="891.06" y2="567.2" gradientUnits="userSpaceOnUse">
<stop offset="0.01"/>
<stop offset="0.03" stop-opacity="0.93"/>
<stop offset="0.51" stop-opacity="0.05"/>
<stop offset="0.58" stop-opacity="0.03"/>
<stop offset="0.99" stop-opacity="0"/>
</linearGradient>
<linearGradient id="paint19_linear_101_15272" x1="789.65" y1="620.5" x2="866.15" y2="615.37" gradientUnits="userSpaceOnUse">
<stop offset="0.01"/>
<stop offset="0.15" stop-opacity="0.52"/>
<stop offset="0.99" stop-opacity="0"/>
</linearGradient>
<linearGradient id="paint20_linear_101_15272" x1="790.755" y1="640.208" x2="827.384" y2="668.745" gradientUnits="userSpaceOnUse">
<stop stop-color="#ECC4D7"/>
<stop offset="0.42" stop-color="#EFD4D1"/>
<stop offset="1" stop-color="#F2EAC9"/>
</linearGradient>
<linearGradient id="paint21_linear_101_15272" x1="731.69" y1="681.41" x2="723.74" y2="932.71" gradientUnits="userSpaceOnUse">
<stop offset="0.01"/>
<stop offset="0.15" stop-opacity="0.52"/>
<stop offset="0.99" stop-opacity="0"/>
</linearGradient>
<linearGradient id="paint22_linear_101_15272" x1="787.27" y1="681.99" x2="779.32" y2="933.29" gradientUnits="userSpaceOnUse">
<stop offset="0.01"/>
<stop offset="0.15" stop-opacity="0.52"/>
<stop offset="0.99" stop-opacity="0"/>
</linearGradient>
<clipPath id="clip0_101_15272">
<rect width="1200" height="1200" fill="white"/>
</clipPath>
<clipPath id="clip1_101_15272">
<rect width="706.94" height="597.04" fill="white" transform="translate(247 301)"/>
</clipPath>
</defs>
</svg>
