<svg width="150" height="30" viewBox="0 0 150 30" fill="none" xmlns="http://www.w3.org/2000/svg">
<path d="M110.672 20H108.562L112.403 9.09088H114.842L118.688 20H116.579L113.665 11.3281H113.58L110.672 20ZM110.741 15.7226H116.494V17.31H110.741V15.7226Z" fill="black"/>
<path d="M124.54 9.09088L127.379 17.6775H127.491L130.324 9.09088H132.498L128.652 20H126.212L122.372 9.09088H124.54Z" fill="black"/>
<path d="M138.135 20V9.09088H145.23V10.7475H140.111V13.7091H144.862V15.3657H140.111V18.3434H145.272V20H138.135Z" fill="black"/>
<path d="M10.8768 9.29088C10.8768 9.18042 10.9663 9.09088 11.0768 9.09088H12.653C12.7634 9.09088 12.853 9.18042 12.853 9.29088V16.218C12.853 16.9993 12.6683 17.6864 12.299 18.2794C11.9332 18.8725 11.4183 19.3359 10.7543 19.6697C10.0902 20 9.31428 20.1651 8.42649 20.1651C7.53516 20.1651 6.75746 20 6.09339 19.6697C5.42933 19.3359 4.91442 18.8725 4.54865 18.2794C4.18288 17.6864 4 16.9993 4 16.218V9.29088C4 9.18042 4.08954 9.09088 4.2 9.09088H5.77621C5.88666 9.09088 5.97621 9.18042 5.97621 9.29088V16.0529C5.97621 16.5074 6.07564 16.9123 6.2745 17.2674C6.47692 17.6225 6.76101 17.9013 7.12678 18.1037C7.49254 18.3025 7.92578 18.402 8.42649 18.402C8.9272 18.402 9.36044 18.3025 9.72621 18.1037C10.0955 17.9013 10.3796 17.6225 10.5785 17.2674C10.7773 16.9123 10.8768 16.5074 10.8768 16.0529V9.29088Z" fill="#111827"/>
<path d="M19.401 20C19.2905 20 19.201 19.9104 19.201 19.8V9.29088C19.201 9.18042 19.2905 9.09088 19.401 9.09088H23.2919C24.13 9.09088 24.8331 9.23648 25.4013 9.52767C25.973 9.81886 26.4045 10.2272 26.6957 10.7528C26.9904 11.2748 27.1378 11.8839 27.1378 12.5799C27.1378 13.2794 26.9886 13.8867 26.6903 14.4016C26.3956 14.913 25.9606 15.3089 25.3853 15.5895C24.81 15.8664 24.1033 16.0049 23.2653 16.0049H20.5515C20.4411 16.0049 20.3515 15.9154 20.3515 15.8049V14.5643C20.3515 14.4539 20.4411 14.3643 20.5515 14.3643H22.9989C23.489 14.3643 23.8903 14.2968 24.2028 14.1619C24.5153 14.0234 24.7461 13.8228 24.8952 13.56C25.0479 13.2937 25.1243 12.9669 25.1243 12.5799C25.1243 12.1928 25.0479 11.8625 24.8952 11.5891C24.7425 11.3121 24.5099 11.1026 24.1974 10.9606C23.8849 10.815 23.4819 10.7422 22.9883 10.7422H21.3772C21.2667 10.7422 21.1772 10.8317 21.1772 10.9422V19.8C21.1772 19.9104 21.0876 20 20.9772 20H19.401ZM24.718 15.0568C24.7911 15.0568 24.8584 15.0967 24.8935 15.1609L27.3756 19.7041C27.4484 19.8374 27.352 20 27.2001 20H25.4517C25.378 20 25.3103 19.9595 25.2754 19.8945L22.8374 15.3514C22.7659 15.2181 22.8624 15.0568 23.0136 15.0568H24.718Z" fill="#111827"/>
<path d="M33.3568 20C33.2464 20 33.1568 19.9104 33.1568 19.8V9.29088C33.1568 9.18042 33.2464 9.09088 33.3568 9.09088H37.333C38.1213 9.09088 38.7765 9.21517 39.2985 9.46375C39.8241 9.70878 40.2165 10.0444 40.4757 10.4705C40.7385 10.8966 40.8699 11.3796 40.8699 11.9194C40.8699 12.3633 40.7847 12.7432 40.6142 13.0593C40.4438 13.3718 40.2147 13.6257 39.9271 13.821C39.6522 14.0077 39.3465 14.144 39.0099 14.2302C38.9824 14.2372 38.9629 14.2618 38.9629 14.2902V14.2902C38.9629 14.3228 38.9884 14.3497 39.0209 14.3523C39.3871 14.3818 39.7389 14.4994 40.0762 14.7052C40.4349 14.9183 40.7279 15.2201 40.9551 15.6108C41.1824 16.0014 41.296 16.4737 41.296 17.0277C41.296 17.5923 41.1593 18.1001 40.8859 18.5511C40.6124 18.9986 40.2005 19.3519 39.6501 19.6111C39.0997 19.8704 38.4072 20 37.5727 20H33.3568ZM35.133 18.1487C35.133 18.2592 35.2226 18.3487 35.333 18.3487H37.2584C37.9757 18.3487 38.4924 18.212 38.8085 17.9385C39.1281 17.6615 39.2879 17.3064 39.2879 16.8732C39.2879 16.55 39.208 16.2589 39.0482 15.9996C38.8884 15.7368 38.6611 15.5309 38.3664 15.3817C38.0716 15.229 37.72 15.1527 37.3117 15.1527H35.333C35.2226 15.1527 35.133 15.2422 35.133 15.3527V18.1487ZM35.133 13.5304C35.133 13.6409 35.2226 13.7304 35.333 13.7304H37.0879C37.4289 13.7304 37.736 13.6683 38.0095 13.544C38.2829 13.4162 38.4977 13.2368 38.654 13.006C38.8138 12.7716 38.8937 12.4946 38.8937 12.175C38.8937 11.7525 38.7446 11.4044 38.4463 11.131C38.1515 10.8576 37.7129 10.7209 37.1306 10.7209H35.333C35.2226 10.7209 35.133 10.8104 35.133 10.9209V13.5304Z" fill="#111827"/>
<path d="M48.6619 19.8636C48.6346 19.9451 48.5582 20 48.4723 20H46.7892C46.6513 20 46.5548 19.8637 46.6006 19.7336L50.3003 9.22447C50.3285 9.14443 50.4041 9.09088 50.489 9.09088H52.6454C52.7302 9.09088 52.8058 9.14439 52.834 9.22438L56.5389 19.7335C56.5848 19.8636 56.4882 20 56.3503 20H54.6673C54.5814 20 54.505 19.9451 54.4777 19.8637L51.6233 11.3685C51.6152 11.3444 51.5926 11.3281 51.5672 11.3281V11.3281C51.5417 11.3281 51.5191 11.3444 51.511 11.3685L48.6619 19.8636ZM48.6854 15.9226C48.6854 15.8122 48.7749 15.7226 48.8854 15.7226H54.2382C54.3487 15.7226 54.4382 15.8122 54.4382 15.9226V17.11C54.4382 17.2204 54.3487 17.31 54.2382 17.31H48.8854C48.7749 17.31 48.6854 17.2204 48.6854 17.11V15.9226Z" fill="#111827"/>
<path d="M71.0346 9.09088C71.145 9.09088 71.2346 9.18042 71.2346 9.29088V19.8C71.2346 19.9104 71.145 20 71.0346 20H69.5816C69.5159 20 69.4545 19.9677 69.4171 19.9138L64.3542 12.5948C64.3431 12.5788 64.3248 12.5692 64.3053 12.5692V12.5692C64.2725 12.5692 64.2459 12.5958 64.2459 12.6286V19.8C64.2459 19.9104 64.1564 20 64.0459 20H62.4697C62.3593 20 62.2697 19.9104 62.2697 19.8V9.29088C62.2697 9.18042 62.3593 9.09088 62.4697 9.09088H63.9333C63.999 9.09088 64.0605 9.12316 64.0978 9.17724L69.1544 16.4998C69.1661 16.5168 69.1855 16.527 69.2061 16.527V16.527C69.2409 16.527 69.269 16.4988 69.269 16.4641V9.29088C69.269 9.18042 69.3586 9.09088 69.469 9.09088H71.0346Z" fill="#111827"/>
<path d="M10.8879 19.9383L10.889 19.9378C11.5991 19.5808 12.1571 19.0808 12.554 18.4375C12.9561 17.7915 13.153 17.0483 13.153 16.218V9.29088C13.153 9.01474 12.9291 8.79088 12.653 8.79088H11.0768C10.8006 8.79088 10.5768 9.01474 10.5768 9.29088V16.0529C10.5768 16.4622 10.4877 16.8155 10.3167 17.1208C10.1464 17.4249 9.9041 17.6639 9.5826 17.8403C9.26896 18.0107 8.88709 18.102 8.42649 18.102C7.96623 18.102 7.58458 18.0108 7.27106 17.8406C6.95315 17.6645 6.70999 17.4252 6.5357 17.1198C6.36511 16.8148 6.27621 16.4618 6.27621 16.0529V9.29088C6.27621 9.01474 6.05235 8.79088 5.77621 8.79088H4.2C3.92386 8.79088 3.7 9.01474 3.7 9.29088V16.218C3.7 17.048 3.89491 17.791 4.29331 18.4369C4.69022 19.0805 5.24838 19.5807 5.95866 19.9378L5.95981 19.9383C6.67293 20.293 7.49805 20.4651 8.42649 20.4651C9.35159 20.4651 10.1749 20.2929 10.8879 19.9383ZM21.4772 19.8V16.3049H23.0087L25.0111 20.0364C25.0982 20.1987 25.2675 20.3 25.4517 20.3H27.2001C27.5798 20.3 27.8209 19.8934 27.6389 19.5602L25.5953 15.8197C26.1816 15.5175 26.6369 15.095 26.9502 14.5514C27.2791 13.9835 27.4378 13.3227 27.4378 12.5799C27.4378 11.8411 27.2811 11.18 26.9576 10.6065C26.6355 10.0257 26.1587 9.57691 25.5381 9.26069C24.9164 8.94209 24.1632 8.79088 23.2919 8.79088H19.401C19.1248 8.79088 18.901 9.01474 18.901 9.29088V19.8C18.901 20.0761 19.1248 20.3 19.401 20.3H20.9772C21.2533 20.3 21.4772 20.0761 21.4772 19.8ZM22.9989 14.0643H21.4772V11.0422H22.9883C23.4556 11.0422 23.8112 11.1116 24.0707 11.2325L24.0733 11.2337C24.3323 11.3514 24.5137 11.5184 24.6325 11.7339L24.6333 11.7354C24.7558 11.9547 24.8243 12.2321 24.8243 12.5799C24.8243 12.928 24.7557 13.2002 24.635 13.4108L24.6343 13.4119C24.5212 13.6112 24.3436 13.7711 24.0825 13.887C23.8204 13.9999 23.4639 14.0643 22.9989 14.0643ZM40.8776 13.2029L40.8783 13.2017C41.0773 12.8327 41.1699 12.4014 41.1699 11.9194C41.1699 11.3288 41.0255 10.7908 40.7316 10.3139C40.437 9.82994 39.9958 9.45803 39.4263 9.19231C38.8523 8.91929 38.15 8.79088 37.333 8.79088H33.3568C33.0807 8.79088 32.8568 9.01474 32.8568 9.29088V19.8C32.8568 20.0761 33.0807 20.3 33.3568 20.3H37.5727C38.4359 20.3 39.1755 20.1662 39.7779 19.8825C40.3727 19.6024 40.8332 19.2126 41.1419 18.7075L41.1424 18.7066C41.4463 18.2054 41.596 17.6431 41.596 17.0277C41.596 16.4326 41.4738 15.9056 41.2144 15.4599C40.964 15.0294 40.6364 14.6894 40.2309 14.4482C40.0956 14.3657 39.9573 14.2956 39.8163 14.2381C39.9122 14.1868 40.0054 14.1305 40.0956 14.0692C40.4237 13.8464 40.6849 13.5563 40.8776 13.2029ZM38.7918 16.1555L38.7928 16.157C38.9216 16.366 38.9879 16.6021 38.9879 16.8732C38.9879 17.2219 38.864 17.4934 38.612 17.7118C38.3778 17.9143 37.9507 18.0487 37.2584 18.0487H35.433V15.4527H37.3117C37.6829 15.4527 37.985 15.522 38.2283 15.6481L38.2309 15.6494C38.4796 15.7752 38.6633 15.9441 38.7918 16.1555ZM38.4061 12.837L38.4056 12.8378C38.2824 13.0197 38.1117 13.1648 37.8838 13.2716C37.6547 13.3755 37.3912 13.4304 37.0879 13.4304H35.433V11.0209H37.1306C37.6709 11.0209 38.0235 11.148 38.2422 11.3509L38.2435 11.3522C38.4768 11.566 38.5937 11.8323 38.5937 12.175C38.5937 12.4423 38.5278 12.6586 38.4061 12.837ZM51.5674 12.1438L52.669 15.4226H50.4677L51.5674 12.1438ZM48.9463 19.959L49.7341 17.61H53.404L54.1933 19.9592C54.2617 20.1628 54.4525 20.3 54.6673 20.3H56.3503C56.6952 20.3 56.9365 19.959 56.8218 19.6337L53.117 9.12464C53.0465 8.92465 52.8575 8.79088 52.6454 8.79088H50.489C50.2768 8.79088 50.0878 8.92475 50.0173 9.12484L46.3176 19.6339C46.2031 19.9592 46.4444 20.3 46.7892 20.3H48.4723C48.6872 20.3 48.878 20.1627 48.9463 19.959ZM71.5346 19.8V9.29088C71.5346 9.01474 71.3107 8.79088 71.0346 8.79088H69.469C69.1929 8.79088 68.969 9.01474 68.969 9.29088V15.7034L64.3447 9.00677C64.2513 8.87158 64.0975 8.79088 63.9333 8.79088H62.4697C62.1936 8.79088 61.9697 9.01474 61.9697 9.29088V19.8C61.9697 20.0761 62.1936 20.3 62.4697 20.3H64.0459C64.3221 20.3 64.5459 20.0761 64.5459 19.8V13.3993L69.1704 20.0844C69.2638 20.2194 69.4175 20.3 69.5816 20.3H71.0346C71.3107 20.3 71.5346 20.0761 71.5346 19.8Z" stroke="#222222" stroke-opacity="0.5" stroke-width="0.6"/>
<path d="M81.4085 13.9746C81.2691 14.3601 80.9553 14.3747 80.9251 13.9746C80.9063 11.9749 81.1403 11.2447 81.7497 10.2495C82.7964 8.53857 85.1351 8.69495 86.2426 10.0504L89.5981 14.6855C91.0264 16.6304 91.7655 17.0219 92.7545 15.9936L94.9725 13.1784C95.5913 12.5615 96.5302 13.13 98.5555 14.6855C97.6961 14.3182 97.368 14.4935 96.9062 15.1121C96.0703 16.2759 95.5811 17.0729 94.6882 18.6381C92.8261 21.2545 90.8283 21.5737 89.8256 20.2021C86.8767 15.1101 84.8504 11.1762 83.6265 11.0741C82.5725 10.9103 82.1065 11.6809 81.4085 13.9746Z" fill="#0C0CC5"/>
<path d="M97.2476 14.7141C96.11 13.41 95.6536 13.0142 95.0295 13.1216C95.7968 12.6523 97.0719 13.2239 98.6125 14.7141C98.3063 14.638 97.7049 14.4154 97.2476 14.7141Z" fill="#222222"/>
<path d="M96.9916 13.4912C96.0759 12.9675 95.6624 12.9349 95.0295 13.1499L96.0532 11.6713C97.1322 10.261 97.6744 9.985 98.5272 10.4201C99.7045 11.224 100.651 12.7629 102.167 14.8561C103.963 16.2627 104.337 15.5872 105.21 14.8561C106.465 13.43 107.038 12.6011 107.712 11.0457C107.86 10.6928 108.463 10.9152 108.395 11.2447C106.702 17.2462 105.808 18.652 104.243 20.1452C103.684 20.6163 102.746 20.5499 102.338 20.0031C101.536 19.1705 101.186 18.6055 100.575 17.586C99.4135 15.4845 98.6489 14.546 96.9916 13.4912Z" fill="#000DFF"/>
</svg>
